<mxfile host="app.diagrams.net" modified="2021-08-27T06:42:32.302Z" agent="5.0 (Macintosh; Intel Mac OS X 10_15_2) AppleWebKit/537.36 (KHTML, like Gecko) Chrome/92.0.4515.131 Safari/537.36" etag="J_fCvACo6SYY8rnCbE81" version="15.0.2" type="github">
  <diagram id="-_mJ63LGrxRTPv0yEkCp" name="Page-1">
    <mxGraphModel dx="1113" dy="674" grid="1" gridSize="10" guides="1" tooltips="1" connect="1" arrows="1" fold="1" page="1" pageScale="1" pageWidth="827" pageHeight="1169" math="0" shadow="0">
      <root>
        <mxCell id="0" />
        <mxCell id="1" parent="0" />
        <mxCell id="CVGO6zHbOEm8w8JO9wKM-1" value="" style="rounded=1;whiteSpace=wrap;html=1;fillColor=#dae8fc;strokeColor=#6c8ebf;strokeWidth=2;" vertex="1" parent="1">
          <mxGeometry x="130" y="220" width="410" height="50" as="geometry" />
        </mxCell>
        <mxCell id="CVGO6zHbOEm8w8JO9wKM-2" value="" style="rounded=1;whiteSpace=wrap;html=1;fillColor=#f5f5f5;strokeColor=#666666;fontColor=#333333;strokeWidth=2;" vertex="1" parent="1">
          <mxGeometry x="130" y="300" width="410" height="170" as="geometry" />
        </mxCell>
        <mxCell id="CVGO6zHbOEm8w8JO9wKM-4" value="Git仓库" style="rounded=1;whiteSpace=wrap;html=1;fillColor=#fff2cc;strokeColor=#d6b656;strokeWidth=2;" vertex="1" parent="1">
          <mxGeometry x="140" y="230" width="120" height="30" as="geometry" />
        </mxCell>
        <mxCell id="CVGO6zHbOEm8w8JO9wKM-7" value="Flow流水线" style="rounded=1;whiteSpace=wrap;html=1;fillColor=#fff2cc;strokeColor=#d6b656;strokeWidth=2;" vertex="1" parent="1">
          <mxGeometry x="275" y="230" width="120" height="30" as="geometry" />
        </mxCell>
        <mxCell id="CVGO6zHbOEm8w8JO9wKM-8" value="Webhook" style="rounded=1;whiteSpace=wrap;html=1;fillColor=#fff2cc;strokeColor=#d6b656;strokeWidth=2;" vertex="1" parent="1">
          <mxGeometry x="410" y="230" width="120" height="30" as="geometry" />
        </mxCell>
        <mxCell id="CVGO6zHbOEm8w8JO9wKM-12" value="输入源" style="text;html=1;strokeColor=none;fillColor=none;align=center;verticalAlign=middle;whiteSpace=wrap;rounded=0;dashed=1;" vertex="1" parent="1">
          <mxGeometry x="80" y="235" width="40" height="20" as="geometry" />
        </mxCell>
        <mxCell id="CVGO6zHbOEm8w8JO9wKM-15" value="Stage1" style="text;html=1;strokeColor=none;fillColor=none;align=center;verticalAlign=middle;whiteSpace=wrap;rounded=0;dashed=1;" vertex="1" parent="1">
          <mxGeometry x="80" y="375" width="40" height="20" as="geometry" />
        </mxCell>
        <mxCell id="CVGO6zHbOEm8w8JO9wKM-17" value="" style="rounded=1;whiteSpace=wrap;html=1;strokeColor=#82b366;strokeWidth=2;fillColor=#d5e8d4;" vertex="1" parent="1">
          <mxGeometry x="140" y="310" width="390" height="50" as="geometry" />
        </mxCell>
        <mxCell id="CVGO6zHbOEm8w8JO9wKM-20" value="Step1" style="rounded=1;whiteSpace=wrap;html=1;strokeWidth=2;fillColor=#ffe6cc;strokeColor=#d79b00;" vertex="1" parent="1">
          <mxGeometry x="150" y="335" width="70" height="20" as="geometry" />
        </mxCell>
        <mxCell id="CVGO6zHbOEm8w8JO9wKM-21" value="Step2" style="rounded=1;whiteSpace=wrap;html=1;strokeWidth=2;fillColor=#ffe6cc;strokeColor=#d79b00;" vertex="1" parent="1">
          <mxGeometry x="230" y="335" width="70" height="20" as="geometry" />
        </mxCell>
        <mxCell id="CVGO6zHbOEm8w8JO9wKM-22" value="Step3" style="rounded=1;whiteSpace=wrap;html=1;strokeWidth=2;fillColor=#ffe6cc;strokeColor=#d79b00;" vertex="1" parent="1">
          <mxGeometry x="310" y="335" width="70" height="20" as="geometry" />
        </mxCell>
        <mxCell id="CVGO6zHbOEm8w8JO9wKM-23" value="Job1" style="text;html=1;strokeColor=none;fillColor=none;align=center;verticalAlign=middle;whiteSpace=wrap;rounded=0;" vertex="1" parent="1">
          <mxGeometry x="310" y="310" width="40" height="20" as="geometry" />
        </mxCell>
        <mxCell id="CVGO6zHbOEm8w8JO9wKM-24" value="&lt;font style=&quot;font-size: 18px&quot;&gt;...&lt;/font&gt;" style="text;html=1;strokeColor=none;fillColor=none;align=center;verticalAlign=middle;whiteSpace=wrap;rounded=0;" vertex="1" parent="1">
          <mxGeometry x="393.5" y="330" width="40" height="20" as="geometry" />
        </mxCell>
        <mxCell id="CVGO6zHbOEm8w8JO9wKM-25" value="StepN" style="rounded=1;whiteSpace=wrap;html=1;strokeWidth=2;fillColor=#ffe6cc;strokeColor=#d79b00;" vertex="1" parent="1">
          <mxGeometry x="450" y="335" width="70" height="20" as="geometry" />
        </mxCell>
        <mxCell id="CVGO6zHbOEm8w8JO9wKM-26" value="Job2" style="rounded=1;whiteSpace=wrap;html=1;strokeColor=#82b366;strokeWidth=2;fillColor=#d5e8d4;" vertex="1" parent="1">
          <mxGeometry x="140" y="370" width="390" height="30" as="geometry" />
        </mxCell>
        <mxCell id="CVGO6zHbOEm8w8JO9wKM-27" value="&lt;font style=&quot;font-size: 18px&quot;&gt;...&lt;/font&gt;" style="text;html=1;strokeColor=none;fillColor=none;align=center;verticalAlign=middle;whiteSpace=wrap;rounded=0;" vertex="1" parent="1">
          <mxGeometry x="310" y="400" width="40" height="20" as="geometry" />
        </mxCell>
        <mxCell id="CVGO6zHbOEm8w8JO9wKM-28" value="JobN" style="rounded=1;whiteSpace=wrap;html=1;strokeColor=#82b366;strokeWidth=2;fillColor=#d5e8d4;" vertex="1" parent="1">
          <mxGeometry x="140" y="430" width="390" height="30" as="geometry" />
        </mxCell>
        <mxCell id="CVGO6zHbOEm8w8JO9wKM-29" value="" style="rounded=1;whiteSpace=wrap;html=1;fillColor=#f5f5f5;strokeColor=#666666;fontColor=#333333;strokeWidth=2;" vertex="1" parent="1">
          <mxGeometry x="130" y="490" width="410" height="40" as="geometry" />
        </mxCell>
        <mxCell id="CVGO6zHbOEm8w8JO9wKM-30" value="Stage2" style="text;html=1;strokeColor=none;fillColor=none;align=center;verticalAlign=middle;whiteSpace=wrap;rounded=0;dashed=1;" vertex="1" parent="1">
          <mxGeometry x="80" y="500" width="40" height="20" as="geometry" />
        </mxCell>
        <mxCell id="CVGO6zHbOEm8w8JO9wKM-31" value="&lt;font style=&quot;font-size: 18px&quot;&gt;...&lt;/font&gt;" style="text;html=1;strokeColor=none;fillColor=none;align=center;verticalAlign=middle;whiteSpace=wrap;rounded=0;" vertex="1" parent="1">
          <mxGeometry x="315" y="530" width="40" height="20" as="geometry" />
        </mxCell>
        <mxCell id="CVGO6zHbOEm8w8JO9wKM-33" value="" style="rounded=1;whiteSpace=wrap;html=1;fillColor=#f5f5f5;strokeColor=#666666;fontColor=#333333;strokeWidth=2;" vertex="1" parent="1">
          <mxGeometry x="130" y="560" width="410" height="40" as="geometry" />
        </mxCell>
        <mxCell id="CVGO6zHbOEm8w8JO9wKM-34" value="StageN" style="text;html=1;strokeColor=none;fillColor=none;align=center;verticalAlign=middle;whiteSpace=wrap;rounded=0;dashed=1;" vertex="1" parent="1">
          <mxGeometry x="80" y="570" width="40" height="20" as="geometry" />
        </mxCell>
      </root>
    </mxGraphModel>
  </diagram>
</mxfile>
